<svg width="36" height="112" viewBox="0 0 36 112" fill="none" xmlns="http://www.w3.org/2000/svg">
<path d="M8 112C3.58172 112 -1.56562e-07 108.418 -3.49691e-07 104L-4.54598e-06 8C-4.73911e-06 3.58173 3.58172 -1.56562e-07 8 -3.49691e-07L36 -1.57361e-06L36 112L8 112Z" fill="#FF7500"/>
<path d="M18 83.1001C17.6081 83.1001 17.216 83.201 16.8662 83.4048V83.4062L11.2441 86.686C10.7841 86.9542 10.5 87.4485 10.5 87.981V95.5C10.5 96.3198 11.1802 97 12 97H24C24.8198 97 25.5 96.3198 25.5 95.5V87.981C25.5 87.4492 25.2157 86.9542 24.7559 86.686L19.1338 83.4062C18.7842 83.2022 18.3919 83.1001 18 83.1001ZM18 84.5986C18.1304 84.5987 18.261 84.633 18.3779 84.7012L24 87.981V87.9824V88.0176L18.7925 91.2578C18.3072 91.5601 17.6928 91.5601 17.2075 91.2578L12 88.0176V87.981L17.6221 84.7012C17.7396 84.6327 17.8696 84.5986 18 84.5986ZM18 85.9053C17.9039 85.9053 17.808 85.942 17.7349 86.0151L16.3901 87.3599C16.1539 87.5961 16.3208 88 16.6553 88H17.25V89.5C17.25 89.914 17.586 90.25 18 90.25C18.414 90.25 18.75 89.914 18.75 89.5V88H19.3447C19.6792 88 19.8461 87.5961 19.6099 87.3599L18.2651 86.0151C18.1916 85.942 18.0961 85.9053 18 85.9053Z" fill="white"/>
<path d="M13.878 66.594L15.376 66.594L15.376 71.081L18.372 71.081L18.372 67.294L19.877 67.294L19.877 71.081L24 71.081L24 72.978L13.878 72.978L13.878 66.594ZM16.706 62.6978C16.706 62.2452 16.7783 61.8298 16.923 61.4518C17.0677 61.0692 17.28 60.7402 17.56 60.4648C17.8353 60.1895 18.176 59.9748 18.582 59.8208C18.9833 59.6668 19.443 59.5898 19.961 59.5898C20.0917 59.5898 20.2013 59.5968 20.29 59.6108C20.374 59.6202 20.4417 59.6412 20.493 59.6738C20.5397 59.7018 20.5747 59.7415 20.598 59.7928C20.6167 59.8442 20.626 59.9095 20.626 59.9888L20.626 64.4268C21.3633 64.3755 21.9047 64.1772 22.25 63.8318C22.5953 63.4865 22.768 63.0292 22.768 62.4598C22.768 62.1798 22.7353 61.9395 22.67 61.7388C22.6047 61.5335 22.5323 61.3562 22.453 61.2068C22.3737 61.0528 22.3013 60.9198 22.236 60.8078C22.1707 60.6912 22.138 60.5792 22.138 60.4718C22.138 60.4018 22.152 60.3412 22.18 60.2898C22.208 60.2385 22.2477 60.1942 22.299 60.1568L22.929 59.6528C23.153 59.8442 23.342 60.0588 23.496 60.2968C23.6453 60.5348 23.7667 60.7845 23.86 61.0458C23.9487 61.3025 24.0117 61.5662 24.049 61.8368C24.0863 62.1028 24.105 62.3618 24.105 62.6138C24.105 63.1132 24.0233 63.5775 23.86 64.0068C23.692 64.4362 23.447 64.8095 23.125 65.1268C22.7983 65.4442 22.397 65.6938 21.921 65.8758C21.4403 66.0578 20.885 66.1488 20.255 66.1488C19.765 66.1488 19.3053 66.0695 18.876 65.9108C18.442 65.7522 18.0663 65.5258 17.749 65.2318C17.427 64.9332 17.1727 64.5715 16.986 64.1468C16.7993 63.7175 16.706 63.2345 16.706 62.6978ZM17.945 62.6628C17.945 63.1668 18.0873 63.5612 18.372 63.8458C18.6567 64.1305 19.0603 64.3125 19.583 64.3918L19.583 61.1438C19.359 61.1438 19.149 61.1742 18.953 61.2348C18.7523 61.2955 18.5773 61.3888 18.428 61.5148C18.2787 61.6408 18.162 61.7995 18.078 61.9908C17.9893 62.1822 17.945 62.4062 17.945 62.6628ZM16.706 55.2193C16.706 54.7667 16.7783 54.3513 16.923 53.9733C17.0677 53.5907 17.28 53.2617 17.56 52.9863C17.8353 52.711 18.176 52.4963 18.582 52.3423C18.9833 52.1883 19.443 52.1113 19.961 52.1113C20.0917 52.1113 20.2013 52.1183 20.29 52.1323C20.374 52.1417 20.4417 52.1627 20.493 52.1953C20.5397 52.2233 20.5747 52.263 20.598 52.3143C20.6167 52.3657 20.626 52.431 20.626 52.5103L20.626 56.9483C21.3633 56.897 21.9047 56.6987 22.25 56.3533C22.5953 56.008 22.768 55.5507 22.768 54.9813C22.768 54.7013 22.7353 54.461 22.67 54.2603C22.6047 54.055 22.5323 53.8777 22.453 53.7283C22.3737 53.5743 22.3013 53.4413 22.236 53.3293C22.1707 53.2127 22.138 53.1007 22.138 52.9933C22.138 52.9233 22.152 52.8627 22.18 52.8113C22.208 52.76 22.2477 52.7157 22.299 52.6783L22.929 52.1743C23.153 52.3657 23.342 52.5803 23.496 52.8183C23.6453 53.0563 23.7667 53.306 23.86 53.5673C23.9487 53.824 24.0117 54.0877 24.049 54.3583C24.0863 54.6243 24.105 54.8833 24.105 55.1353C24.105 55.6347 24.0233 56.099 23.86 56.5283C23.692 56.9577 23.447 57.331 23.125 57.6483C22.7983 57.9657 22.397 58.2153 21.921 58.3973C21.4403 58.5793 20.885 58.6703 20.255 58.6703C19.765 58.6703 19.3053 58.591 18.876 58.4323C18.442 58.2737 18.0663 58.0473 17.749 57.7533C17.427 57.4547 17.1727 57.093 16.986 56.6683C16.7993 56.239 16.706 55.756 16.706 55.2193ZM17.945 55.1843C17.945 55.6883 18.0873 56.0827 18.372 56.3673C18.6567 56.652 19.0603 56.834 19.583 56.9133L19.583 53.6653C19.359 53.6653 19.149 53.6957 18.953 53.7563C18.7523 53.817 18.5773 53.9103 18.428 54.0363C18.2787 54.1623 18.162 54.321 18.078 54.5123C17.9893 54.7037 17.945 54.9277 17.945 55.1843ZM24 45.6548C24 45.8788 23.895 46.0258 23.685 46.0958L22.992 46.2358C23.16 46.3851 23.3117 46.5415 23.447 46.7048C23.5823 46.8681 23.699 47.0455 23.797 47.2368C23.895 47.4235 23.9697 47.6265 24.021 47.8458C24.077 48.0605 24.105 48.2938 24.105 48.5458C24.105 48.9378 24.0233 49.2971 23.86 49.6238C23.6967 49.9505 23.461 50.2328 23.153 50.4708C22.8403 50.7041 22.4553 50.8861 21.998 51.0168C21.5407 51.1428 21.018 51.2058 20.43 51.2058C19.898 51.2058 19.4033 51.1335 18.946 50.9888C18.4887 50.8441 18.092 50.6365 17.756 50.3658C17.42 50.0951 17.1587 49.7708 16.972 49.3928C16.7807 49.0148 16.685 48.5901 16.685 48.1188C16.685 47.7175 16.7503 47.3745 16.881 47.0898C17.007 46.8051 17.1773 46.5508 17.392 46.3268L13.598 46.3268L13.598 44.5978L24 44.5978L24 45.6548ZM22.733 47.9578C22.733 47.5985 22.6583 47.2928 22.509 47.0408C22.3597 46.7888 22.1473 46.5508 21.872 46.3268L18.652 46.3268C18.414 46.5228 18.246 46.7375 18.148 46.9708C18.05 47.1995 18.001 47.4468 18.001 47.7128C18.001 47.9741 18.05 48.2121 18.148 48.4268C18.246 48.6368 18.3953 48.8165 18.596 48.9658C18.792 49.1105 19.044 49.2225 19.352 49.3018C19.6553 49.3811 20.0147 49.4208 20.43 49.4208C20.85 49.4208 21.207 49.3881 21.501 49.3228C21.7903 49.2528 22.0283 49.1548 22.215 49.0288C22.397 48.9028 22.53 48.7488 22.614 48.5668C22.6933 48.3848 22.733 48.1818 22.733 47.9578ZM24 42.7034L13.598 42.7034L13.598 40.9744L17.7 40.9744C17.3967 40.6898 17.1563 40.3678 16.979 40.0084C16.797 39.6491 16.706 39.2291 16.706 38.7484C16.706 38.3564 16.7877 37.9994 16.951 37.6774C17.1097 37.3508 17.343 37.0708 17.651 36.8374C17.959 36.5994 18.3393 36.4174 18.792 36.2914C19.2447 36.1608 19.765 36.0954 20.353 36.0954C20.8897 36.0954 21.3867 36.1678 21.844 36.3124C22.3013 36.4571 22.698 36.6648 23.034 36.9354C23.37 37.2014 23.6337 37.5258 23.825 37.9084C24.0117 38.2864 24.105 38.7111 24.105 39.1824C24.105 39.4018 24.0817 39.6024 24.035 39.7844C23.993 39.9664 23.9323 40.1321 23.853 40.2814C23.7737 40.4308 23.678 40.5708 23.566 40.7014C23.4493 40.8274 23.321 40.9488 23.181 41.0654L23.664 41.1424C23.7853 41.1704 23.8717 41.2194 23.923 41.2894C23.9743 41.3548 24 41.4458 24 41.5624L24 42.7034ZM18.05 39.3434C18.05 39.7028 18.127 40.0108 18.281 40.2674C18.4303 40.5194 18.6427 40.7551 18.918 40.9744L22.138 40.9744C22.3807 40.7784 22.551 40.5661 22.649 40.3374C22.7423 40.1041 22.789 39.8521 22.789 39.5814C22.789 39.3201 22.74 39.0844 22.642 38.8744C22.544 38.6644 22.3947 38.4871 22.194 38.3424C21.9933 38.1931 21.7413 38.0788 21.438 37.9994C21.13 37.9201 20.7683 37.8804 20.353 37.8804C19.933 37.8804 19.5783 37.9154 19.289 37.9854C18.995 38.0508 18.757 38.1464 18.575 38.2724C18.393 38.3984 18.26 38.5524 18.176 38.7344C18.092 38.9118 18.05 39.1148 18.05 39.3434ZM24 29.1121L24 29.8891C24 30.0524 23.9767 30.1807 23.93 30.2741C23.8787 30.3674 23.7783 30.4374 23.629 30.4841L23.118 30.6381C23.2813 30.8201 23.426 30.9997 23.552 31.1771C23.6733 31.3497 23.776 31.5294 23.86 31.7161C23.944 31.9027 24.007 32.1011 24.049 32.3111C24.091 32.5211 24.112 32.7544 24.112 33.0111C24.112 33.3144 24.0723 33.5944 23.993 33.8511C23.909 34.1077 23.7853 34.3294 23.622 34.5161C23.4587 34.6981 23.2557 34.8404 23.013 34.9431C22.7703 35.0457 22.488 35.0971 22.166 35.0971C21.8953 35.0971 21.6293 35.0271 21.368 34.8871C21.102 34.7424 20.864 34.5044 20.654 34.1731C20.4393 33.8417 20.262 33.4007 20.122 32.8501C19.982 32.2994 19.9027 31.6157 19.884 30.7991L19.464 30.7991C18.9833 30.7991 18.6287 30.9017 18.4 31.1071C18.1667 31.3077 18.05 31.6017 18.05 31.9891C18.05 32.2691 18.0827 32.5024 18.148 32.6891C18.2133 32.8757 18.288 33.0391 18.372 33.1791C18.4513 33.3144 18.5237 33.4404 18.589 33.5571C18.6543 33.6737 18.687 33.8021 18.687 33.9421C18.687 34.0587 18.6567 34.1591 18.596 34.2431C18.5353 34.3271 18.4607 34.3947 18.372 34.4461L17.819 34.7611C17.063 33.9351 16.685 32.9387 16.685 31.7721C16.685 31.3521 16.755 30.9787 16.895 30.6521C17.0303 30.3207 17.2217 30.0407 17.469 29.8121C17.7117 29.5834 18.0033 29.4107 18.344 29.2941C18.6847 29.1727 19.058 29.1121 19.464 29.1121L24 29.1121ZM22.922 32.4721C22.922 32.2947 22.9057 32.1314 22.873 31.9821C22.8403 31.8327 22.7913 31.6927 22.726 31.5621C22.6607 31.4267 22.5813 31.2984 22.488 31.1771C22.39 31.0511 22.2757 30.9251 22.145 30.7991L20.934 30.7991C20.9573 31.3031 21.0017 31.7254 21.067 32.0661C21.1277 32.4021 21.207 32.6727 21.305 32.8781C21.403 33.0834 21.5173 33.2304 21.648 33.3191C21.7787 33.4031 21.921 33.4451 22.075 33.4451C22.3783 33.4451 22.5953 33.3564 22.726 33.1791C22.8567 32.9971 22.922 32.7614 22.922 32.4721ZM18.337 22.3649C18.4023 22.4163 18.4537 22.4676 18.491 22.5189C18.5283 22.5656 18.547 22.6356 18.547 22.7289C18.547 22.8176 18.5213 22.9039 18.47 22.9879C18.414 23.0719 18.3533 23.1723 18.288 23.2889C18.218 23.4056 18.1573 23.5456 18.106 23.7089C18.05 23.8676 18.022 24.0659 18.022 24.3039C18.022 24.6073 18.078 24.8733 18.19 25.1019C18.2973 25.3306 18.4537 25.5219 18.659 25.6759C18.8643 25.8253 19.114 25.9373 19.408 26.0119C19.6973 26.0866 20.0263 26.1239 20.395 26.1239C20.7777 26.1239 21.1183 26.0843 21.417 26.0049C21.7157 25.9209 21.9677 25.8019 22.173 25.6479C22.3737 25.4939 22.5277 25.3073 22.635 25.0879C22.7377 24.8686 22.789 24.6213 22.789 24.3459C22.789 24.0706 22.7563 23.8489 22.691 23.6809C22.621 23.5083 22.5463 23.3636 22.467 23.2469C22.383 23.1303 22.3083 23.0299 22.243 22.9459C22.173 22.8573 22.138 22.7593 22.138 22.6519C22.138 22.5119 22.1917 22.4069 22.299 22.3369L22.929 21.8399C23.153 22.0313 23.342 22.2389 23.496 22.4629C23.6453 22.6869 23.7667 22.9203 23.86 23.1629C23.9487 23.4009 24.0117 23.6483 24.049 23.9049C24.0863 24.1616 24.105 24.4159 24.105 24.6679C24.105 25.1113 24.0233 25.5289 23.86 25.9209C23.692 26.3129 23.4493 26.6559 23.132 26.9499C22.8147 27.2393 22.4273 27.4703 21.97 27.6429C21.508 27.8109 20.983 27.8949 20.395 27.8949C19.8677 27.8949 19.38 27.8203 18.932 27.6709C18.4793 27.5169 18.0897 27.2929 17.763 26.9989C17.4317 26.7049 17.1727 26.3409 16.986 25.9069C16.7993 25.4729 16.706 24.9736 16.706 24.4089C16.706 23.8723 16.7923 23.4033 16.965 23.0019C17.1377 22.5959 17.385 22.2319 17.707 21.9099L18.337 22.3649ZM13.598 18.9901L19.555 18.9901L19.555 18.6681C19.555 18.5514 19.5387 18.4604 19.506 18.3951C19.4733 18.3297 19.4127 18.2597 19.324 18.1851L17.119 16.4001C17.0257 16.3207 16.9533 16.2367 16.902 16.1481C16.846 16.0594 16.818 15.9427 16.818 15.7981L16.818 14.2161L19.485 16.4491C19.583 16.5284 19.674 16.6101 19.758 16.6941C19.8373 16.7781 19.9073 16.8691 19.968 16.9671C20.038 16.8691 20.1197 16.7827 20.213 16.7081C20.3063 16.6334 20.4067 16.5587 20.514 16.4841L24 14.0901L24 15.6511C24 15.7864 23.9767 15.9007 23.93 15.9941C23.8833 16.0874 23.804 16.1714 23.692 16.2461L20.969 18.0731C20.8617 18.1431 20.7917 18.2131 20.759 18.2831C20.7263 18.3531 20.71 18.4581 20.71 18.5981L20.71 18.9901L24 18.9901L24 20.7191L13.598 20.7191L13.598 18.9901Z" fill="white"/>
</svg>